<mxfile host="app.diagrams.net" modified="2022-10-27T18:19:25.718Z" agent="5.0 (Windows)" etag="qhqfsWbvQCCy1BBx3xId" version="20.5.1" type="github">
  <diagram id="4m0jU5gXHexkXpUN08Bo" name="Page-1">
    <mxGraphModel dx="2126" dy="696" grid="1" gridSize="10" guides="1" tooltips="1" connect="1" arrows="0" fold="1" page="1" pageScale="1" pageWidth="1100" pageHeight="850" background="#FFFFFF" math="0" shadow="0">
      <root>
        <mxCell id="0" />
        <mxCell id="1" style="" parent="0" />
        <mxCell id="UPS6wOX1UsMNAhAZUDVI-95" value="" style="group" parent="1" vertex="1" connectable="0">
          <mxGeometry x="-1092" y="100" width="1085" height="730" as="geometry" />
        </mxCell>
        <mxCell id="UPS6wOX1UsMNAhAZUDVI-50" value="" style="group" parent="UPS6wOX1UsMNAhAZUDVI-95" vertex="1" connectable="0">
          <mxGeometry width="1085" height="730" as="geometry" />
        </mxCell>
        <mxCell id="UPS6wOX1UsMNAhAZUDVI-53" value="" style="rounded=0;whiteSpace=wrap;html=1;sketch=1;fillStyle=dashed;fillColor=#dae8fc;strokeColor=#6c8ebf;" parent="UPS6wOX1UsMNAhAZUDVI-50" vertex="1">
          <mxGeometry x="5" y="43.75471698113207" width="257.1428571428571" height="679.2452830188679" as="geometry" />
        </mxCell>
        <mxCell id="UPS6wOX1UsMNAhAZUDVI-55" value="" style="ellipse;shape=cloud;whiteSpace=wrap;html=1;fillColor=#f8cecc;fillStyle=dashed;sketch=1;strokeColor=#b85450;" parent="UPS6wOX1UsMNAhAZUDVI-50" vertex="1">
          <mxGeometry x="249.28571428571425" y="118.67924528301886" width="617.142857142857" height="543.3962264150942" as="geometry" />
        </mxCell>
        <mxCell id="UPS6wOX1UsMNAhAZUDVI-64" value="" style="shape=flexArrow;endArrow=classic;startArrow=classic;html=1;rounded=0;fillColor=#f8cecc;strokeColor=#b85450;width=81;startSize=5.95;" parent="UPS6wOX1UsMNAhAZUDVI-50" edge="1">
          <mxGeometry width="100" height="100" relative="1" as="geometry">
            <mxPoint x="242.85571428571427" y="389.33735849056603" as="sourcePoint" />
            <mxPoint x="448.56999999999994" y="388.65811320754716" as="targetPoint" />
          </mxGeometry>
        </mxCell>
        <mxCell id="UPS6wOX1UsMNAhAZUDVI-51" value="" style="rounded=1;whiteSpace=wrap;html=1;sketch=1;fillStyle=solid;fontSize=12;fontColor=#333333;fillColor=#f5f5f5;strokeColor=#666666;" parent="UPS6wOX1UsMNAhAZUDVI-50" vertex="1">
          <mxGeometry x="725" y="610" width="281" height="110" as="geometry" />
        </mxCell>
        <mxCell id="UPS6wOX1UsMNAhAZUDVI-52" value="" style="rounded=0;whiteSpace=wrap;html=1;sketch=1;fillStyle=dashed;fontSize=16;fillColor=#d5e8d4;strokeColor=#82b366;" parent="UPS6wOX1UsMNAhAZUDVI-50" vertex="1">
          <mxGeometry x="545" y="8" width="210" height="130" as="geometry" />
        </mxCell>
        <mxCell id="UPS6wOX1UsMNAhAZUDVI-54" value="a" style="rounded=0;whiteSpace=wrap;html=1;sketch=1;fillStyle=dashed;fillColor=#e1d5e7;strokeColor=#9673a6;" parent="UPS6wOX1UsMNAhAZUDVI-50" vertex="1">
          <mxGeometry x="899" y="268.11" width="180" height="311.89" as="geometry" />
        </mxCell>
        <mxCell id="UPS6wOX1UsMNAhAZUDVI-56" value="" style="shape=flexArrow;endArrow=classic;startArrow=classic;html=1;rounded=0;fillColor=#f8cecc;strokeColor=#b85450;width=81;startSize=5.95;" parent="UPS6wOX1UsMNAhAZUDVI-50" edge="1">
          <mxGeometry width="100" height="100" relative="1" as="geometry">
            <mxPoint x="660.7157142857143" y="390.5573584905662" as="sourcePoint" />
            <mxPoint x="915" y="390" as="targetPoint" />
          </mxGeometry>
        </mxCell>
        <mxCell id="UPS6wOX1UsMNAhAZUDVI-57" value="" style="image;html=1;image=img/lib/clip_art/computers/Server_Tower_128x128.png" parent="UPS6wOX1UsMNAhAZUDVI-50" vertex="1">
          <mxGeometry x="17.857142857142854" y="546.3962264150942" width="102.85714285714283" height="108.67924528301886" as="geometry" />
        </mxCell>
        <mxCell id="UPS6wOX1UsMNAhAZUDVI-58" value="" style="image;html=1;image=img/lib/clip_art/networking/Wireless_Router_128x128.png" parent="UPS6wOX1UsMNAhAZUDVI-50" vertex="1">
          <mxGeometry x="146.42857142857142" y="329.03773584905656" width="102.85714285714283" height="108.67924528301886" as="geometry" />
        </mxCell>
        <mxCell id="UPS6wOX1UsMNAhAZUDVI-59" value="" style="image;html=1;image=img/lib/clip_art/computers/Server_128x128.png" parent="UPS6wOX1UsMNAhAZUDVI-50" vertex="1">
          <mxGeometry x="911.8571428571427" y="336.03773584905656" width="154.28571428571425" height="108.67924528301886" as="geometry" />
        </mxCell>
        <mxCell id="UPS6wOX1UsMNAhAZUDVI-60" value="" style="points=[];aspect=fixed;html=1;align=center;shadow=0;dashed=0;image;image=img/lib/allied_telesis/computer_and_terminals/Smartphone.svg;" parent="UPS6wOX1UsMNAhAZUDVI-50" vertex="1">
          <mxGeometry x="557.8571428571428" y="18" width="47.1342857142857" height="102.85714285714283" as="geometry" />
        </mxCell>
        <mxCell id="UPS6wOX1UsMNAhAZUDVI-61" value="" style="shape=flexArrow;endArrow=classic;startArrow=classic;html=1;rounded=0;exitX=0.5;exitY=0;exitDx=0;exitDy=0;entryX=0.5;entryY=1;entryDx=0;entryDy=0;fillColor=#dae8fc;strokeColor=#6c8ebf;width=45.714285714285715;startSize=9.38095238095238;" parent="UPS6wOX1UsMNAhAZUDVI-50" source="UPS6wOX1UsMNAhAZUDVI-57" target="UPS6wOX1UsMNAhAZUDVI-58" edge="1">
          <mxGeometry width="100" height="100" relative="1" as="geometry">
            <mxPoint x="197.21428571428567" y="526.0188679245282" as="sourcePoint" />
            <mxPoint x="197.21428571428567" y="349.4150943396226" as="targetPoint" />
          </mxGeometry>
        </mxCell>
        <mxCell id="UPS6wOX1UsMNAhAZUDVI-62" value="" style="image;html=1;image=img/lib/clip_art/computers/Laptop_128x128.png;sketch=1;fillStyle=dashed;fillColor=#CCCCCC;" parent="UPS6wOX1UsMNAhAZUDVI-50" vertex="1">
          <mxGeometry x="17.857142857142854" y="111.67924528301886" width="102.85714285714283" height="108.67924528301886" as="geometry" />
        </mxCell>
        <mxCell id="UPS6wOX1UsMNAhAZUDVI-63" value="" style="shape=flexArrow;endArrow=classic;startArrow=classic;html=1;rounded=0;entryX=0.5;entryY=1;entryDx=0;entryDy=0;exitX=0.5;exitY=0;exitDx=0;exitDy=0;fillColor=#dae8fc;strokeColor=#6c8ebf;width=15.714285714285714;startSize=5.1000000000000005;" parent="UPS6wOX1UsMNAhAZUDVI-50" source="UPS6wOX1UsMNAhAZUDVI-58" target="UPS6wOX1UsMNAhAZUDVI-62" edge="1">
          <mxGeometry width="100" height="100" relative="1" as="geometry">
            <mxPoint x="120.7142857142857" y="369.7924528301886" as="sourcePoint" />
            <mxPoint x="249.28571428571425" y="233.94339622641505" as="targetPoint" />
          </mxGeometry>
        </mxCell>
        <mxCell id="UPS6wOX1UsMNAhAZUDVI-65" value="" style="shape=flexArrow;endArrow=classic;startArrow=classic;html=1;rounded=0;fillColor=#f8cecc;strokeColor=#b85450;width=20;endSize=5.216666666666667;" parent="UPS6wOX1UsMNAhAZUDVI-50" edge="1">
          <mxGeometry width="100" height="100" relative="1" as="geometry">
            <mxPoint x="580.7814285714284" y="281.6981132075471" as="sourcePoint" />
            <mxPoint x="580.7814285714284" y="118.67924528301886" as="targetPoint" />
          </mxGeometry>
        </mxCell>
        <mxCell id="UPS6wOX1UsMNAhAZUDVI-66" value="" style="shape=flexArrow;endArrow=classic;startArrow=classic;html=1;rounded=1;fillColor=#ffe6cc;strokeColor=#d79b00;width=25.71428571428571;startSize=7.6952380952380945;exitX=0.579;exitY=0.012;exitDx=0;exitDy=0;exitPerimeter=0;startWidth=8.70748299319728;" parent="UPS6wOX1UsMNAhAZUDVI-50" source="UPS6wOX1UsMNAhAZUDVI-57" edge="1">
          <mxGeometry width="100" height="100" relative="1" as="geometry">
            <mxPoint x="87" y="549" as="sourcePoint" />
            <mxPoint x="915" y="410" as="targetPoint" />
            <Array as="points">
              <mxPoint x="175" y="470" />
              <mxPoint x="285" y="410" />
            </Array>
          </mxGeometry>
        </mxCell>
        <mxCell id="UPS6wOX1UsMNAhAZUDVI-67" value="" style="endArrow=open;startArrow=open;html=1;startFill=0;strokeWidth=2;strokeColor=#67AB9F;rounded=1;endFill=0;entryX=0.477;entryY=1.003;entryDx=0;entryDy=0;entryPerimeter=0;" parent="UPS6wOX1UsMNAhAZUDVI-50" target="UPS6wOX1UsMNAhAZUDVI-60" edge="1">
          <mxGeometry width="50" height="50" relative="1" as="geometry">
            <mxPoint x="82" y="550" as="sourcePoint" />
            <mxPoint x="587.86" y="118.68" as="targetPoint" />
            <Array as="points">
              <mxPoint x="172" y="480" />
              <mxPoint x="277" y="419" />
              <mxPoint x="907" y="419" />
              <mxPoint x="917.86" y="388.68" />
              <mxPoint x="577.86" y="388.68" />
            </Array>
          </mxGeometry>
        </mxCell>
        <mxCell id="UPS6wOX1UsMNAhAZUDVI-68" value="&lt;div style=&quot;font-size: 14px;&quot;&gt;&lt;font style=&quot;font-size: 14px;&quot;&gt;&lt;b&gt;Public IP: &lt;i&gt;4.3.2.1&lt;/i&gt;&lt;/b&gt;&lt;/font&gt;&lt;/div&gt;&lt;div style=&quot;font-size: 14px;&quot;&gt;&lt;font style=&quot;font-size: 14px;&quot;&gt;&lt;b&gt;&lt;i&gt;[2600::4321]&lt;br&gt;&lt;/i&gt;&lt;/b&gt;&lt;/font&gt;&lt;/div&gt;" style="text;html=1;resizable=0;autosize=1;align=center;verticalAlign=middle;points=[];fillColor=none;strokeColor=none;rounded=0;sketch=1;fillStyle=dashed;" parent="UPS6wOX1UsMNAhAZUDVI-50" vertex="1">
          <mxGeometry y="357" width="140" height="50" as="geometry" />
        </mxCell>
        <mxCell id="UPS6wOX1UsMNAhAZUDVI-69" value="&lt;div&gt;&lt;b&gt;Public IP: &lt;i&gt;1.2.3.4&lt;/i&gt;&lt;/b&gt;&lt;/div&gt;&lt;div&gt;&lt;b&gt;&lt;i&gt;[2700::1234]&lt;br&gt;&lt;/i&gt;&lt;/b&gt;&lt;/div&gt;" style="text;html=1;resizable=0;autosize=1;align=center;verticalAlign=middle;points=[];fillColor=none;strokeColor=none;rounded=0;sketch=1;fillStyle=dashed;fontSize=14;" parent="UPS6wOX1UsMNAhAZUDVI-50" vertex="1">
          <mxGeometry x="919" y="452" width="140" height="50" as="geometry" />
        </mxCell>
        <mxCell id="UPS6wOX1UsMNAhAZUDVI-70" value="&lt;b&gt;&lt;font style=&quot;font-size: 16px;&quot; color=&quot;#7EA6E0&quot;&gt;Local Network&lt;/font&gt;&lt;/b&gt;" style="text;html=1;resizable=0;autosize=1;align=center;verticalAlign=middle;points=[];fillColor=none;strokeColor=none;rounded=0;sketch=1;fillStyle=dashed;fontSize=14;" parent="UPS6wOX1UsMNAhAZUDVI-50" vertex="1">
          <mxGeometry x="68.57" y="58" width="130" height="30" as="geometry" />
        </mxCell>
        <mxCell id="UPS6wOX1UsMNAhAZUDVI-71" value="&lt;font style=&quot;font-size: 16px;&quot;&gt;&lt;b&gt;&lt;font style=&quot;font-size: 16px;&quot; color=&quot;#A680B8&quot;&gt;VPS&lt;/font&gt;&lt;/b&gt;&lt;/font&gt;" style="text;html=1;resizable=0;autosize=1;align=center;verticalAlign=middle;points=[];fillColor=none;strokeColor=none;rounded=0;sketch=1;fillStyle=dashed;fontSize=14;" parent="UPS6wOX1UsMNAhAZUDVI-50" vertex="1">
          <mxGeometry x="965" y="280" width="60" height="30" as="geometry" />
        </mxCell>
        <mxCell id="UPS6wOX1UsMNAhAZUDVI-72" value="&lt;div&gt;&lt;b&gt;Public IP: &lt;i&gt;9.8.7.6&lt;/i&gt;&lt;/b&gt;&lt;/div&gt;&lt;div&gt;&lt;b&gt;&lt;i&gt;[2800::9876]&lt;br&gt;&lt;/i&gt;&lt;/b&gt;&lt;/div&gt;" style="text;html=1;resizable=0;autosize=1;align=center;verticalAlign=middle;points=[];fillColor=none;strokeColor=none;rounded=0;sketch=1;fillStyle=dashed;fontSize=14;" parent="UPS6wOX1UsMNAhAZUDVI-50" vertex="1">
          <mxGeometry x="604.99" y="78" width="140" height="50" as="geometry" />
        </mxCell>
        <mxCell id="UPS6wOX1UsMNAhAZUDVI-73" value="&lt;font style=&quot;font-size: 16px;&quot; color=&quot;#97D077&quot;&gt;&lt;b&gt;Remote Client&lt;/b&gt;&lt;/font&gt;" style="text;html=1;resizable=0;autosize=1;align=center;verticalAlign=middle;points=[];fillColor=none;strokeColor=none;rounded=0;sketch=1;fillStyle=dashed;fontSize=14;" parent="UPS6wOX1UsMNAhAZUDVI-50" vertex="1">
          <mxGeometry x="614.99" y="18" width="130" height="30" as="geometry" />
        </mxCell>
        <mxCell id="UPS6wOX1UsMNAhAZUDVI-74" value="" style="endArrow=open;startArrow=open;html=1;rounded=1;strokeColor=#7EA6E0;strokeWidth=2;fontSize=16;fontColor=#97D077;exitX=0.288;exitY=0.002;exitDx=0;exitDy=0;endFill=0;startFill=0;exitPerimeter=0;" parent="UPS6wOX1UsMNAhAZUDVI-50" source="UPS6wOX1UsMNAhAZUDVI-57" edge="1">
          <mxGeometry width="50" height="50" relative="1" as="geometry">
            <mxPoint x="17.860000000000127" y="303" as="sourcePoint" />
            <mxPoint x="67" y="222" as="targetPoint" />
            <Array as="points">
              <mxPoint x="165" y="443" />
              <mxPoint x="175" y="433" />
              <mxPoint x="197" y="332" />
            </Array>
          </mxGeometry>
        </mxCell>
        <mxCell id="UPS6wOX1UsMNAhAZUDVI-75" value="&lt;div style=&quot;font-size: 13px;&quot; align=&quot;left&quot;&gt;&lt;font style=&quot;font-size: 13px;&quot;&gt;&lt;b style=&quot;font-size: 13px;&quot;&gt;Local IP&lt;/b&gt;&lt;b&gt;:&lt;/b&gt; 10.1.0.2&lt;br&gt;&lt;/font&gt;&lt;/div&gt;&lt;div style=&quot;font-size: 13px;&quot; align=&quot;left&quot;&gt;&lt;font style=&quot;font-size: 13px;&quot;&gt;&amp;nbsp;&amp;nbsp;&amp;nbsp;&amp;nbsp;&amp;nbsp;&amp;nbsp;&amp;nbsp;&amp;nbsp;&amp;nbsp;&amp;nbsp;&amp;nbsp;&amp;nbsp;&amp;nbsp;&amp;nbsp; [fd10::2]&lt;br&gt;&lt;/font&gt;&lt;/div&gt;&lt;div style=&quot;font-size: 13px;&quot; align=&quot;left&quot;&gt;&lt;b&gt;WG IP:&lt;/b&gt; 10.7.0.2&lt;/div&gt;&lt;div style=&quot;font-size: 13px;&quot; align=&quot;left&quot;&gt;&amp;nbsp;&amp;nbsp;&amp;nbsp;&amp;nbsp;&amp;nbsp;&amp;nbsp; [fd07:dead:feed::2]&lt;br&gt;&lt;/div&gt;&lt;div style=&quot;font-size: 13px;&quot; align=&quot;left&quot;&gt;&lt;i&gt;&lt;br&gt;&lt;/i&gt;&lt;/div&gt;&lt;div style=&quot;font-size: 13px;&quot; align=&quot;left&quot;&gt;&lt;i&gt;*Outbound traffic routed &lt;br&gt;&lt;/i&gt;&lt;/div&gt;&lt;div style=&quot;font-size: 13px;&quot; align=&quot;left&quot;&gt;&lt;i&gt;to WireGuard interface &lt;br&gt;&lt;/i&gt;&lt;/div&gt;&lt;div style=&quot;font-size: 13px;&quot; align=&quot;left&quot;&gt;&lt;i&gt;unless destination is &lt;br&gt;&lt;/i&gt;&lt;/div&gt;&lt;div style=&quot;font-size: 13px;&quot; align=&quot;left&quot;&gt;&lt;i&gt;local network.&lt;/i&gt; &lt;br&gt;&lt;/div&gt;" style="text;html=1;resizable=0;autosize=1;align=left;verticalAlign=middle;points=[];fillColor=none;strokeColor=none;rounded=0;sketch=1;fillStyle=dashed;fontSize=13;fontColor=#000000;" parent="UPS6wOX1UsMNAhAZUDVI-50" vertex="1">
          <mxGeometry x="112.86000000000004" y="572" width="160" height="150" as="geometry" />
        </mxCell>
        <mxCell id="UPS6wOX1UsMNAhAZUDVI-76" value="&lt;div style=&quot;font-size: 13px;&quot; align=&quot;left&quot;&gt;&lt;font style=&quot;font-size: 13px;&quot;&gt;&lt;b style=&quot;font-size: 13px;&quot;&gt;Local IP&lt;/b&gt;&lt;b&gt;:&lt;/b&gt; 10.1.0.3&lt;br&gt;&lt;/font&gt;&lt;/div&gt;&lt;div style=&quot;font-size: 13px;&quot; align=&quot;left&quot;&gt;&lt;font style=&quot;font-size: 13px;&quot;&gt;&amp;nbsp;&amp;nbsp;&amp;nbsp;&amp;nbsp;&amp;nbsp;&amp;nbsp;&amp;nbsp;&amp;nbsp;&amp;nbsp;&amp;nbsp;&amp;nbsp;&amp;nbsp;&amp;nbsp;&amp;nbsp; [fd10::3]&lt;/font&gt;&amp;nbsp;&lt;br&gt;&lt;/div&gt;" style="text;html=1;resizable=0;autosize=1;align=left;verticalAlign=middle;points=[];fillColor=none;strokeColor=none;rounded=0;sketch=1;fillStyle=dashed;fontSize=13;fontColor=#000000;" parent="UPS6wOX1UsMNAhAZUDVI-50" vertex="1">
          <mxGeometry x="112.86000000000001" y="146.02" width="130" height="40" as="geometry" />
        </mxCell>
        <mxCell id="UPS6wOX1UsMNAhAZUDVI-77" value="&lt;div style=&quot;&quot; align=&quot;left&quot;&gt;&lt;font style=&quot;font-size: 13px;&quot;&gt;&lt;b style=&quot;&quot;&gt;Local IP&lt;/b&gt;&lt;b&gt;:&lt;/b&gt; 10.1.0.1/24&lt;/font&gt;&lt;/div&gt;&lt;div style=&quot;&quot; align=&quot;left&quot;&gt;&lt;font style=&quot;font-size: 13px;&quot;&gt;&amp;nbsp;&amp;nbsp;&amp;nbsp;&amp;nbsp;&amp;nbsp;&amp;nbsp;&amp;nbsp;&amp;nbsp;&amp;nbsp;&amp;nbsp;&amp;nbsp;&amp;nbsp;&amp;nbsp;&amp;nbsp; [fd10::3]&lt;/font&gt;&lt;font style=&quot;font-size: 13px;&quot;&gt;/64 &lt;br&gt;&lt;/font&gt;&lt;/div&gt;" style="text;html=1;resizable=0;autosize=1;align=left;verticalAlign=middle;points=[];fillColor=none;strokeColor=none;rounded=0;sketch=1;fillStyle=dashed;fontSize=13;fontColor=#000000;" parent="UPS6wOX1UsMNAhAZUDVI-50" vertex="1">
          <mxGeometry x="11" y="411" width="150" height="40" as="geometry" />
        </mxCell>
        <mxCell id="UPS6wOX1UsMNAhAZUDVI-78" value="" style="shape=flexArrow;endArrow=classic;startArrow=classic;html=1;rounded=0;fillColor=#f8cecc;strokeColor=#b85450;width=10;startSize=4.585714285714286;endSize=4.585714285714286;startWidth=7.278911564625851;endWidth=7.278911564625851;" parent="UPS6wOX1UsMNAhAZUDVI-50" edge="1">
          <mxGeometry width="100" height="100" relative="1" as="geometry">
            <mxPoint x="734.9957142857143" y="628.7573584905659" as="sourcePoint" />
            <mxPoint x="775" y="628.08" as="targetPoint" />
          </mxGeometry>
        </mxCell>
        <mxCell id="UPS6wOX1UsMNAhAZUDVI-79" value="WAN" style="text;html=1;resizable=0;autosize=1;align=center;verticalAlign=middle;points=[];fillColor=none;strokeColor=none;rounded=0;sketch=1;fillStyle=dashed;fontSize=12;fontColor=#000000;" parent="UPS6wOX1UsMNAhAZUDVI-50" vertex="1">
          <mxGeometry x="775" y="612.08" width="50" height="30" as="geometry" />
        </mxCell>
        <mxCell id="UPS6wOX1UsMNAhAZUDVI-80" value="LAN" style="text;html=1;resizable=0;autosize=1;align=center;verticalAlign=middle;points=[];fillColor=none;strokeColor=none;rounded=0;sketch=1;fillStyle=dashed;fontSize=12;fontColor=#000000;" parent="UPS6wOX1UsMNAhAZUDVI-50" vertex="1">
          <mxGeometry x="774" y="632.08" width="50" height="30" as="geometry" />
        </mxCell>
        <mxCell id="UPS6wOX1UsMNAhAZUDVI-81" value="&lt;div align=&quot;center&quot;&gt;&lt;br&gt;&lt;/div&gt;&lt;div style=&quot;font-size: 13px;&quot; align=&quot;center&quot;&gt;&lt;b&gt;WG IP:&lt;/b&gt; 10.7.0.1&lt;/div&gt;&lt;div style=&quot;font-size: 13px;&quot; align=&quot;center&quot;&gt;[fd07:dead:feed::1]&lt;br&gt;&lt;/div&gt;&lt;div align=&quot;center&quot;&gt;&amp;nbsp;&lt;/div&gt;" style="text;whiteSpace=wrap;html=1;fontSize=13;fontColor=#000000;align=center;" parent="UPS6wOX1UsMNAhAZUDVI-50" vertex="1">
          <mxGeometry x="904" y="480" width="170" height="70" as="geometry" />
        </mxCell>
        <mxCell id="UPS6wOX1UsMNAhAZUDVI-82" value="&lt;div align=&quot;left&quot;&gt;&lt;br&gt;&lt;/div&gt;" style="text;html=1;resizable=0;autosize=1;align=center;verticalAlign=middle;points=[];fillColor=none;strokeColor=none;rounded=0;sketch=1;fillStyle=dashed;fontSize=13;fontColor=#000000;" parent="UPS6wOX1UsMNAhAZUDVI-50" vertex="1">
          <mxGeometry x="796.4300000000001" y="685" width="20" height="30" as="geometry" />
        </mxCell>
        <mxCell id="UPS6wOX1UsMNAhAZUDVI-83" value="&lt;div style=&quot;font-size: 12px;&quot;&gt;&lt;font style=&quot;font-size: 12px;&quot;&gt;Connections to Server that preserve&lt;/font&gt;&lt;/div&gt;&lt;div style=&quot;font-size: 12px;&quot;&gt;&lt;font style=&quot;font-size: 12px;&quot;&gt;source IP&lt;br&gt;&lt;/font&gt;&lt;/div&gt;" style="text;html=1;resizable=0;autosize=1;align=left;verticalAlign=middle;points=[];fillColor=none;strokeColor=none;rounded=0;sketch=1;fillStyle=dashed;fontSize=13;fontColor=#000000;" parent="UPS6wOX1UsMNAhAZUDVI-50" vertex="1">
          <mxGeometry x="784" y="678" width="220" height="40" as="geometry" />
        </mxCell>
        <mxCell id="UPS6wOX1UsMNAhAZUDVI-84" value="&lt;b&gt;&lt;font style=&quot;font-size: 16px;&quot; color=&quot;#7EA6E0&quot;&gt;Admin&lt;br&gt;&lt;/font&gt;&lt;/b&gt;" style="text;whiteSpace=wrap;html=1;fontSize=12;fontColor=#000000;" parent="UPS6wOX1UsMNAhAZUDVI-50" vertex="1">
          <mxGeometry x="112.86000000000001" y="123" width="140" height="40" as="geometry" />
        </mxCell>
        <mxCell id="UPS6wOX1UsMNAhAZUDVI-85" value="&lt;b&gt;&lt;font style=&quot;font-size: 16px;&quot; color=&quot;#7EA6E0&quot;&gt;Server&lt;br&gt;&lt;/font&gt;&lt;/b&gt;" style="text;whiteSpace=wrap;html=1;fontSize=12;fontColor=#000000;" parent="UPS6wOX1UsMNAhAZUDVI-50" vertex="1">
          <mxGeometry x="112.86000000000001" y="551" width="140" height="40" as="geometry" />
        </mxCell>
        <mxCell id="UPS6wOX1UsMNAhAZUDVI-86" value="&lt;font style=&quot;font-size: 16px;&quot; color=&quot;#EA6B66&quot;&gt;&lt;b&gt;&lt;font style=&quot;font-size: 16px;&quot;&gt;The Internet&lt;br&gt;&lt;/font&gt;&lt;/b&gt;&lt;/font&gt;" style="text;whiteSpace=wrap;html=1;fontSize=12;align=center;fillColor=none;strokeColor=none;" parent="UPS6wOX1UsMNAhAZUDVI-50" vertex="1">
          <mxGeometry x="530.71" y="452" width="101.42" height="40" as="geometry" />
        </mxCell>
        <mxCell id="UPS6wOX1UsMNAhAZUDVI-87" value="&lt;div align=&quot;left&quot;&gt;WireGuard Network&lt;/div&gt;" style="text;html=1;resizable=0;autosize=1;align=left;verticalAlign=middle;points=[];fillColor=none;strokeColor=none;rounded=0;sketch=1;fillStyle=dashed;fontSize=12;fontColor=#000000;" parent="UPS6wOX1UsMNAhAZUDVI-50" vertex="1">
          <mxGeometry x="784" y="652" width="130" height="30" as="geometry" />
        </mxCell>
        <mxCell id="UPS6wOX1UsMNAhAZUDVI-88" value="&lt;b&gt;&lt;font style=&quot;font-size: 16px;&quot; color=&quot;#7EA6E0&quot;&gt;Router&lt;br&gt;&lt;/font&gt;&lt;/b&gt;" style="text;whiteSpace=wrap;html=1;fontSize=12;fontColor=#000000;" parent="UPS6wOX1UsMNAhAZUDVI-50" vertex="1">
          <mxGeometry x="13.860000000000127" y="335.03999999999996" width="140" height="40" as="geometry" />
        </mxCell>
        <mxCell id="UPS6wOX1UsMNAhAZUDVI-89" value="" style="endArrow=open;startArrow=open;html=1;rounded=1;strokeColor=#66FFFF;strokeWidth=2;startFill=0;endFill=0;entryX=0.545;entryY=0.002;entryDx=0;entryDy=0;entryPerimeter=0;" parent="UPS6wOX1UsMNAhAZUDVI-95" target="UPS6wOX1UsMNAhAZUDVI-57" edge="1">
          <mxGeometry width="50" height="50" relative="1" as="geometry">
            <mxPoint x="77" y="220" as="sourcePoint" />
            <mxPoint x="77" y="549" as="targetPoint" />
            <Array as="points">
              <mxPoint x="272" y="389" />
              <mxPoint x="915" y="380" />
              <mxPoint x="907" y="409" />
              <mxPoint x="277" y="409" />
              <mxPoint x="172" y="470" />
            </Array>
          </mxGeometry>
        </mxCell>
        <mxCell id="UPS6wOX1UsMNAhAZUDVI-90" value="" style="shape=flexArrow;endArrow=classic;startArrow=classic;html=1;rounded=0;fillColor=#dae8fc;strokeColor=#6c8ebf;width=10;startSize=4.585714285714286;endSize=4.585714285714286;startWidth=7.278911564625851;endWidth=7.278911564625851;" parent="UPS6wOX1UsMNAhAZUDVI-95" edge="1">
          <mxGeometry width="100" height="100" relative="1" as="geometry">
            <mxPoint x="734.9957142857143" y="648.7573584905658" as="sourcePoint" />
            <mxPoint x="775" y="648.0799999999999" as="targetPoint" />
          </mxGeometry>
        </mxCell>
        <mxCell id="UPS6wOX1UsMNAhAZUDVI-91" value="" style="shape=flexArrow;endArrow=classic;startArrow=classic;html=1;rounded=0;fillColor=#ffe6cc;strokeColor=#d79b00;width=10;startSize=4.585714285714286;endSize=4.585714285714286;startWidth=7.278911564625851;endWidth=7.278911564625851;" parent="UPS6wOX1UsMNAhAZUDVI-95" edge="1">
          <mxGeometry width="100" height="100" relative="1" as="geometry">
            <mxPoint x="734.9957142857143" y="668.7573584905658" as="sourcePoint" />
            <mxPoint x="775" y="668.0799999999999" as="targetPoint" />
          </mxGeometry>
        </mxCell>
        <mxCell id="UPS6wOX1UsMNAhAZUDVI-92" value="" style="endArrow=open;startArrow=open;html=1;rounded=1;strokeColor=#7EA6E0;strokeWidth=2;fontSize=12;fontColor=#000000;startFill=0;endFill=0;" parent="UPS6wOX1UsMNAhAZUDVI-95" edge="1">
          <mxGeometry width="50" height="50" relative="1" as="geometry">
            <mxPoint x="736" y="688.0799999999999" as="sourcePoint" />
            <mxPoint x="776" y="688.0799999999999" as="targetPoint" />
          </mxGeometry>
        </mxCell>
        <mxCell id="UPS6wOX1UsMNAhAZUDVI-93" value="" style="endArrow=open;startArrow=open;html=1;rounded=1;strokeColor=#66FFFF;strokeWidth=2;fontSize=12;fontColor=#000000;startFill=0;endFill=0;" parent="UPS6wOX1UsMNAhAZUDVI-95" edge="1">
          <mxGeometry width="50" height="50" relative="1" as="geometry">
            <mxPoint x="736" y="698.0799999999999" as="sourcePoint" />
            <mxPoint x="776" y="698.0799999999999" as="targetPoint" />
          </mxGeometry>
        </mxCell>
        <mxCell id="UPS6wOX1UsMNAhAZUDVI-94" value="" style="endArrow=open;startArrow=open;html=1;rounded=1;strokeColor=#67AB9F;strokeWidth=2;fontSize=12;fontColor=#000000;startFill=0;endFill=0;" parent="UPS6wOX1UsMNAhAZUDVI-95" edge="1">
          <mxGeometry width="50" height="50" relative="1" as="geometry">
            <mxPoint x="736" y="708.0799999999999" as="sourcePoint" />
            <mxPoint x="776" y="708.0799999999999" as="targetPoint" />
          </mxGeometry>
        </mxCell>
      </root>
    </mxGraphModel>
  </diagram>
</mxfile>
